PathFileType	4	(X/Y/Z)	StaticT.trc																																																																									
DataRate	CameraRate	NumFrames	NumMarkers	Units	OrigDataRate	OrigDataStartFrame	OrigNumFrames																																																																					
100	100	13	25	mm	100	0	481																																																																					
Frame#	Time	AA			AI			Ant_Sh			CV7			GH			LAH			Lat_Sh			LCAJ			LPH			Post_Sh			RAH			RCAJ			RHLE			RHME			RPH			RUA			SJN			SXS			TS			TV8			centelbow			centpxt8			centijc7			centLPHRPH			ScapulaThoracicContactPt		
		X1	Y1	Z1	X2	Y2	Z2	X3	Y3	Z3	X4	Y4	Z4	X5	Y5	Z5	X6	Y6	Z6	X7	Y7	Z7	X8	Y8	Z8	X9	Y9	Z9	X10	Y10	Z10	X11	Y11	Z11	X12	Y12	Z12	X13	Y13	Z13	X14	Y14	Z14	X15	Y15	Z15	X16	Y16	Z16	X17	Y17	Z17	X18	Y18	Z18	X19	Y19	Z19	X20	Y20	Z20	X21	Y21	Z21	X22	Y22	Z22	X23	Y23	Z23	X24	Y24	Z24	X25	Y25	Z25
																																																																												
1	0	-749.7246094	1556.946533	764.0324707	-766.501709	1375.521973	721.2712402	-638.8518677	1574.635254	778.9898682	-744.7018433	1597.525635	584.3855591	-690.965271	1548.212158	776.7919922	-525.1052246	1778.987427	555.7265015	-710.3137817	1585.149658	791.4943237	-694.5498047	1594.974731	438.5266724	-724.9471436	1732.098145	519.2583008	-763.5088501	1511.430298	773.7325439	-541.5359497	1778.695557	653.0349731	-702.4613647	1588.588623	732.3237915	-719.0888672	1519.651855	1051.521606	-604.2883911	1473.127319	1057.222534	-737.0565186	1734.27771	635.505249	-720.7723389	1457.924805	905.0969849	-579.9108887	1522.052612	591.3252563	-518.1569824	1343.095581	591.3984985	-798.8865967	1505.363403	675.7974854	-751.5453491	1310.253296	584.3686523	-661.6886292	1496.389587	1054.37207	-634.8511658	1326.674438	587.8835754	-662.306366	1559.789124	587.8554077	-731.0018311	1733.187927	577.3817749	-771.704305	1479.277303	720.3670654
2	0.01	-749.7298584	1556.92749	764.0352783	-766.4969482	1375.468872	721.2155762	-638.852478	1574.618774	779.0211792	-744.7439575	1597.515015	584.376709	-691.0204468	1548.185303	776.7957764	-525.0841675	1778.973022	555.7602539	-710.3733521	1585.139771	791.5187988	-694.5976563	1594.960815	438.5247192	-724.9822998	1732.113403	519.2404785	-763.5404663	1511.439331	773.7022095	-541.5487671	1778.696655	653.0192871	-702.4699097	1588.560059	732.3259888	-719.088623	1519.673584	1051.525635	-604.2852783	1473.130005	1057.219849	-737.0807495	1734.28125	635.5180664	-720.8225708	1457.915039	905.1272583	-579.9573975	1522.046875	591.3306274	-518.211731	1343.098389	591.4191895	-798.918335	1505.372681	675.7674561	-751.5369873	1310.248047	584.3119507	-661.6869507	1496.401794	1054.372742	-634.8743591	1326.673218	587.8655701	-662.3506775	1559.780945	587.8536682	-731.0315247	1733.197327	577.3792725	-771.7150472	1479.256348	720.3394368
3	0.02	-749.7041626	1556.914185	764.0688477	-766.5349121	1375.488281	721.230835	-638.9082031	1574.607422	779.0640869	-744.7868042	1597.51416	584.3696289	-691.0184937	1548.211426	776.8337402	-525.1260376	1778.972168	555.7281494	-710.3656006	1585.165894	791.5093994	-694.5995483	1594.945923	438.5279236	-725.0197144	1732.120483	519.2637939	-763.5835571	1511.454102	773.7278442	-541.5919189	1778.713989	653.0389404	-702.5065918	1588.554932	732.3497925	-719.1099854	1519.612549	1051.577759	-604.3295898	1473.074219	1057.230347	-737.0843506	1734.263062	635.5136108	-720.777832	1457.898926	905.102356	-580.0148315	1522.013916	591.3667603	-518.218689	1343.094116	591.4408569	-798.8874512	1505.341919	675.7928467	-751.5786133	1310.264404	584.338501	-661.7197876	1496.343384	1054.404053	-634.8986511	1326.67926	587.889679	-662.4008179	1559.764038	587.8681946	-731.0520325	1733.191772	577.3887024	-771.708842	1479.248128	720.3641764
4	0.03	-749.7695923	1556.92688	764.0640259	-766.5455933	1375.458008	721.2470703	-638.9196777	1574.550415	779.0558472	-744.8151855	1597.519043	584.3480225	-691.0621948	1548.156372	776.8392334	-525.0996094	1778.961426	555.7889404	-710.3875732	1585.100342	791.5341797	-694.6593628	1594.955078	438.5513611	-725.0421143	1732.095215	519.2687988	-763.6325073	1511.421997	773.7541504	-541.6107788	1778.714355	653.0209351	-702.515625	1588.552368	732.3043823	-719.0997925	1519.579468	1051.527832	-604.3274536	1473.114014	1057.201172	-737.1282959	1734.284424	635.5339966	-720.8226318	1457.914795	905.1272583	-580.0195923	1522.017944	591.3792725	-518.2265015	1343.092529	591.4498901	-798.9761353	1505.345703	675.8501587	-751.5789185	1310.263672	584.338501	-661.713623	1496.346741	1054.364502	-634.90271	1326.678101	587.8941956	-662.4173889	1559.768494	587.8636475	-731.0852051	1733.189819	577.4013977	-771.7637736	1479.24353	720.387085
5	0.04	-749.8082275	1556.850098	764.0514526	-766.5452881	1375.458618	721.2470703	-638.9483032	1574.581421	779.0631714	-744.8032227	1597.515503	584.3850708	-691.0805664	1548.162964	776.8555298	-525.1279907	1778.990356	555.7715454	-710.4391479	1585.136353	791.5460205	-694.6811523	1594.973999	438.5755005	-725.0366211	1732.110718	519.2715454	-763.6009521	1511.412842	773.7844849	-541.6552734	1778.7229	653.0610352	-702.5327759	1588.543823	732.3109741	-719.1209106	1519.540039	1051.583984	-604.3285522	1473.1073	1057.22583	-737.1524658	1734.285522	635.5007935	-720.828064	1457.889038	905.1325684	-580.0690308	1522.033936	591.3677979	-518.2804565	1343.077637	591.4894409	-798.9713135	1505.314819	675.7992554	-751.6123047	1310.274536	584.3083496	-661.7247314	1496.323669	1054.404907	-634.9463806	1326.676086	587.8988953	-662.4361267	1559.774719	587.8764343	-731.0945435	1733.19812	577.3861694	-771.774943	1479.207845	720.3659261
6	0.05	-749.8001709	1556.85437	764.0586548	-766.59375	1375.427368	721.2734375	-639.0087891	1574.58667	779.0812988	-744.8091431	1597.499634	584.3927002	-691.0906982	1548.189331	776.8550415	-525.1219482	1778.985352	555.7730713	-710.4402466	1585.125366	791.5654297	-694.6792603	1594.954102	438.563324	-725.0684814	1732.125854	519.2650146	-763.6325073	1511.421997	773.7541504	-541.65271	1778.720215	653.0407715	-702.5701904	1588.536011	732.3353882	-719.0802612	1519.498291	1051.565063	-604.331543	1473.056519	1057.242065	-737.157959	1734.290161	635.5032349	-720.9046631	1457.892456	905.1222534	-580.0852051	1522.020508	591.4197998	-518.2347412	1343.084106	591.4907837	-799.0078735	1505.35498	675.8201294	-751.6204224	1310.280396	584.3649902	-661.7059021	1496.277405	1054.403564	-634.9275818	1326.682251	587.927887	-662.4471741	1559.760071	587.90625	-731.1132202	1733.208008	577.3841248	-771.8005981	1479.21224	720.3840739
7	0.06	-749.8328247	1556.84375	764.0668335	-766.6256714	1375.43811	721.243103	-639.0669556	1574.58606	779.1069946	-744.80896	1597.497437	584.3908081	-691.1320801	1548.185059	776.8696289	-525.18927	1779.010498	555.7150879	-710.4951172	1585.123901	791.5820313	-694.663147	1594.968628	438.5624084	-725.0514526	1732.058472	519.2855835	-763.6325684	1511.421875	773.7541504	-541.661377	1778.734741	653.0460205	-702.6137085	1588.557739	732.3619995	-719.1316528	1519.488892	1051.59436	-604.348938	1473.052002	1057.270752	-737.1655884	1734.25354	635.4971924	-720.8338623	1457.841553	905.1334839	-580.1428833	1522.007446	591.4462891	-518.2449341	1343.079346	591.5339966	-799.0130615	1505.329468	675.8253174	-751.6266479	1310.231812	584.3654175	-661.7402954	1496.270447	1054.432556	-634.935791	1326.655579	587.949707	-662.4759216	1559.752441	587.9185486	-731.1085205	1733.156006	577.3913879	-771.8238525	1479.203776	720.378418
8	0.07	-749.8312378	1556.781372	764.0698853	-766.6313477	1375.411865	721.2487183	-638.9891968	1574.589478	779.1005249	-744.8458252	1597.499756	584.3520508	-691.1500244	1548.1521	776.875	-525.2079468	1778.992554	555.6890259	-710.5175781	1585.126953	791.5719604	-694.6641846	1594.973755	438.5610657	-725.119812	1732.071045	519.2769775	-763.6813965	1511.390015	773.7803955	-541.6635742	1778.740479	653.0661011	-702.6134644	1588.558716	732.3618164	-719.1427002	1519.416138	1051.600586	-604.3380737	1473.010498	1057.250732	-737.1665649	1734.238159	635.4885864	-720.8392334	1457.815796	905.1387939	-580.105957	1522.017334	591.4575195	-518.2527466	1343.077271	591.5443726	-799.0455933	1505.317505	675.7906494	-751.6263428	1310.232422	584.3654175	-661.740387	1496.213318	1054.425659	-634.9395447	1326.654846	587.954895	-662.4758911	1559.758545	587.9047852	-731.1431885	1733.154602	577.382782	-771.8360596	1479.170247	720.369751
9	0.08	-749.8770752	1556.854492	764.0772705	-766.6691895	1375.431519	721.263916	-639.0401001	1574.582397	779.1210938	-744.8051147	1597.497681	584.3468628	-691.1439209	1548.156494	776.8907471	-525.208252	1778.997314	555.725708	-710.5222778	1585.126221	791.5656738	-694.6829834	1594.942993	438.5667725	-725.0332642	1732.036743	519.284668	-763.6865845	1511.364502	773.7855835	-541.7069092	1778.71106	653.065918	-702.6136475	1588.557983	732.3619385	-719.1176147	1519.38208	1051.636719	-604.3460693	1473	1057.270142	-737.1557007	1734.238037	635.4758301	-720.8843384	1457.810181	905.1592407	-580.0915527	1522.022949	591.4509888	-518.3078003	1343.064575	591.5622559	-799.0078735	1505.35498	675.8201294	-751.6547852	1310.268433	584.3294678	-661.731842	1496.19104	1054.45343	-634.9812927	1326.666504	587.9458618	-662.4483337	1559.760315	587.8989258	-731.0944824	1733.13739	577.380249	-771.8513794	1479.213664	720.3871053
10	0.09	-749.8571777	1556.834473	764.0667114	-766.6748657	1375.405151	721.2695313	-639.0002441	1574.562866	779.069397	-744.81604	1597.486572	584.3933105	-691.1343994	1548.118896	776.8704224	-525.2012329	1778.999756	555.7444458	-710.5155029	1585.101074	791.6325684	-694.6314087	1594.952393	438.5835571	-725.0601807	1732.041626	519.2650146	-763.6556396	1511.333984	773.8114014	-541.6938477	1778.728638	653.0604248	-702.5848999	1588.578735	732.3985596	-719.1481323	1519.390503	1051.605713	-604.3430786	1472.966431	1057.258789	-737.1731567	1734.227661	635.4824829	-720.8843384	1457.810181	905.1592407	-580.043335	1522.021973	591.4393921	-518.3116455	1343.106934	591.5738525	-799.055603	1505.322754	675.8467407	-751.6275024	1310.209351	584.3600464	-661.7456055	1496.178467	1054.432251	-634.969574	1326.658142	587.9669495	-662.4296875	1559.754272	587.9163513	-731.1166687	1733.134644	577.3737488	-771.8625488	1479.187459	720.3943278
11	0.1	-749.8721313	1556.843872	764.0958862	-766.7440796	1375.457642	721.2594604	-639.0529785	1574.54541	779.1293945	-744.8529663	1597.486938	584.3850098	-691.1777954	1548.137085	776.9060059	-525.1939697	1778.994141	555.7478638	-710.5282593	1585.093018	791.611145	-694.6832275	1594.955322	438.6308289	-725.0756836	1732.028076	519.3065796	-763.7294922	1511.379761	773.8111572	-541.7045898	1778.727539	653.0947876	-702.6400757	1588.609253	732.4321289	-719.1998291	1519.359375	1051.630859	-604.3890381	1472.948364	1057.258057	-737.1981812	1734.230469	635.4981079	-720.9211426	1457.793701	905.1337891	-580.1010132	1521.994141	591.4727783	-518.3668213	1343.055176	591.5864868	-799.0548096	1505.344238	675.8513794	-751.6693726	1310.22522	584.3865356	-661.7944336	1496.15387	1054.444458	-635.0180969	1326.640198	587.9865112	-662.4769897	1559.74054	587.928894	-731.1369324	1733.129272	577.4023438	-771.8903402	1479.215251	720.402242
12	0.11	-749.8990479	1556.832031	764.1032104	-766.7557373	1375.383667	721.265625	-639.039978	1574.521606	779.1401367	-744.8518066	1597.487915	584.4025269	-691.1314697	1548.115601	776.9124146	-525.140564	1778.99353	555.7799072	-710.5088501	1585.10144	791.6159668	-694.6860352	1594.986084	438.6086426	-725.0669556	1732.017578	519.3057861	-763.7360229	1511.311401	773.807373	-541.7394409	1778.722656	653.1292725	-702.6572266	1588.57959	732.3886108	-719.1998901	1519.359253	1051.630859	-604.4494019	1472.976318	1057.292358	-737.2009277	1734.239624	635.4935303	-720.9210815	1457.793823	905.1337891	-580.0918579	1522.007324	591.4501343	-518.4060669	1343.046875	591.5551147	-799.0965576	1505.358887	675.8774414	-751.6687012	1310.247314	584.3919067	-661.824646	1496.167786	1054.461609	-635.037384	1326.647095	587.9735107	-662.4718323	1559.74762	587.9263306	-731.1339417	1733.128601	577.3996582	-771.9171143	1479.191528	720.4154256
13	0.12	-749.8921509	1556.822754	764.0968628	-766.75	1375.410034	721.2600098	-639.0314331	1574.527954	779.1688843	-744.8724976	1597.524536	584.4508667	-691.1364746	1548.122192	776.9404297	-525.1814575	1779.000977	555.8079224	-710.4970703	1585.085327	791.6357422	-694.7399902	1594.960938	438.651001	-725.0628662	1732.003418	519.3110962	-763.6985474	1511.349365	773.8370361	-541.6992188	1778.699585	653.0806885	-702.6407471	1588.557739	732.430603	-719.2154541	1519.366821	1051.685913	-604.4483032	1472.919922	1057.297485	-737.2016602	1734.235474	635.4987793	-720.9658203	1457.809937	905.1586914	-580.0916748	1521.992554	591.496521	-518.3991089	1343.008911	591.529541	-799.0965576	1505.358887	675.8774414	-751.668396	1310.247925	584.3919067	-661.8318787	1496.143372	1054.491699	-635.0337524	1326.628418	587.9607239	-662.4820862	1559.758545	587.9736938	-731.1322632	1733.119446	577.4049377	-771.9129028	1479.197225	720.411438
